<?xml version="1.0" encoding="UTF-8" standalone="no"?>
<svg
   width="3713"
   height="2475"
   xml:space="preserve"
   overflow="hidden"
   version="1.1"
   id="svg26"
   sodipodi:docname="OTH_1.svg"
   inkscape:export-filename="BTH4.png"
   inkscape:export-xdpi="15.513062"
   inkscape:export-ydpi="15.513062"
   inkscape:version="1.4 (86a8ad7, 2024-10-11)"
   xmlns:inkscape="http://www.inkscape.org/namespaces/inkscape"
   xmlns:sodipodi="http://sodipodi.sourceforge.net/DTD/sodipodi-0.dtd"
   xmlns="http://www.w3.org/2000/svg"
   xmlns:svg="http://www.w3.org/2000/svg"><defs
     id="defs26"><marker
       style="overflow:visible"
       id="marker13"
       refX="0"
       refY="0"
       orient="auto-start-reverse"
       inkscape:stockid="Triangle arrow"
       markerWidth="1"
       markerHeight="1"
       viewBox="0 0 1 1"
       inkscape:isstock="true"
       inkscape:collect="always"
       preserveAspectRatio="xMidYMid"><path
         transform="scale(0.5)"
         style="fill:context-stroke;fill-rule:evenodd;stroke:context-stroke;stroke-width:1pt"
         d="M 5.77,0 -2.88,5 V -5 Z"
         id="path13" /></marker><marker
       style="overflow:visible"
       id="Triangle"
       refX="0"
       refY="0"
       orient="auto-start-reverse"
       inkscape:stockid="Triangle arrow"
       markerWidth="1"
       markerHeight="1"
       viewBox="0 0 1 1"
       inkscape:isstock="true"
       inkscape:collect="always"
       preserveAspectRatio="xMidYMid"><path
         transform="scale(0.5)"
         style="fill:context-stroke;fill-rule:evenodd;stroke:context-stroke;stroke-width:1pt"
         d="M 5.77,0 -2.88,5 V -5 Z"
         id="path135" /></marker><linearGradient
       id="swatch35"
       inkscape:swatch="solid"><stop
         style="stop-color:#141010;stop-opacity:0;"
         offset="0"
         id="stop35" /></linearGradient><linearGradient
       id="swatch31"
       inkscape:swatch="solid"><stop
         style="stop-color:#000000;stop-opacity:1;"
         offset="0"
         id="stop31" /></linearGradient><marker
       style="overflow:visible"
       id="marker13-3"
       refX="0"
       refY="0"
       orient="auto-start-reverse"
       inkscape:stockid="Triangle arrow"
       markerWidth="1"
       markerHeight="1"
       viewBox="0 0 1 1"
       inkscape:isstock="true"
       inkscape:collect="always"
       preserveAspectRatio="xMidYMid"><path
         transform="scale(0.5)"
         style="fill:context-stroke;fill-rule:evenodd;stroke:context-stroke;stroke-width:1pt"
         d="M 5.77,0 -2.88,5 V -5 Z"
         id="path13-4" /></marker><marker
       style="overflow:visible"
       id="marker13-3-3"
       refX="0"
       refY="0"
       orient="auto-start-reverse"
       inkscape:stockid="Triangle arrow"
       markerWidth="1"
       markerHeight="1"
       viewBox="0 0 1 1"
       inkscape:isstock="true"
       inkscape:collect="always"
       preserveAspectRatio="xMidYMid"><path
         transform="scale(0.5)"
         style="fill:context-stroke;fill-rule:evenodd;stroke:context-stroke;stroke-width:1pt"
         d="M 5.77,0 -2.88,5 V -5 Z"
         id="path13-4-8" /></marker></defs><sodipodi:namedview
     id="namedview26"
     pagecolor="#ffffff"
     bordercolor="#000000"
     borderopacity="0.25"
     inkscape:showpageshadow="2"
     inkscape:pageopacity="0.0"
     inkscape:pagecheckerboard="0"
     inkscape:deskcolor="#d1d1d1"
     inkscape:zoom="0.18"
     inkscape:cx="2644.4444"
     inkscape:cy="1022.2222"
     inkscape:window-width="1440"
     inkscape:window-height="830"
     inkscape:window-x="-6"
     inkscape:window-y="-6"
     inkscape:window-maximized="1"
     inkscape:current-layer="svg26" /><path
     d="M 0,0 V 2475 H 3713 V 0 Z"
     style="fill:#ffffff;opacity:0"
     id="path33" /><path
     d="m 1801,519 c 896.91,0 1624,727.09 1624,1624 H 177 C 177,1246.09 904.09,519 1801,519 Z"
     fill="#e2e2e2"
     fill-rule="evenodd"
     id="path1"
     sodipodi:nodetypes="sccs" /><text
     font-family="Calibri, Calibri_MSFontService, sans-serif"
     font-weight="700"
     font-size="110px"
     id="radius"
     x="2346.4268"
     y="1912.7656"
     style="font-style:normal;font-variant:normal;font-weight:bold;font-stretch:normal;font-size:110px;font-family:Calibri, Calibri_MSFontService, sans-serif;-inkscape-font-specification:'Calibri, Calibri_MSFontService, sans-serif, Bold';font-variant-ligatures:normal;font-variant-caps:normal;font-variant-numeric:normal;font-variant-east-asian:normal"
     inkscape:label="radius"><tspan
       sodipodi:role="line"
       id="tspan13"
       x="2346.4268"
       y="1912.7656">R = 6,378 km</tspan></text><path
     d="m 185.944,2310.5 c -0.02,-0.16 -0.04,-0.31 -0.06,-0.47 -5.544,-54.61 -8.384,-110.02 -8.384,-166.09 0,-897.15 727.09,-1624.44 1624,-1624.44 896.91,0 1624,727.29 1624,1624.44 0,56.07 -2.84,111.48 -8.38,166.09"
     stroke="#000000"
     stroke-width="4.58333"
     stroke-miterlimit="8"
     fill="none"
     fill-rule="evenodd"
     id="path2" /><path
     d="M 1798.9405,2146.5763 2774.3811,522.92369"
     stroke="#000000"
     stroke-width="5.2444"
     stroke-miterlimit="8"
     fill="none"
     fill-rule="evenodd"
     id="path3"
     style="fill:#141010;fill-opacity:0" /><path
     d="m 1801.5,2143.52 4e-4,-1624.02"
     stroke="#000000"
     stroke-width="6.875"
     stroke-miterlimit="8"
     fill="none"
     fill-rule="evenodd"
     id="path4" /><path
     d="m 2776.9214,519.5 -1609.4212,3.6e-4"
     stroke="#000000"
     stroke-width="5.7355"
     stroke-miterlimit="8"
     fill="none"
     fill-rule="evenodd"
     id="path5" /><path
     d="m 1797.2796,2146.64 -583.3468,-1494.53171 5.8704,-2.37861 583.3468,1494.53272 z m -590.5953,-1486.98588 2.3979,-28.67715 21.0745,19.16366 z"
     id="path6"
     style="stroke-width:0.927348" /><text
     fill="#ff0000"
     font-family="Calibri, Calibri_MSFontService, sans-serif"
     font-weight="700"
     font-size="110px"
     id="text7"
     x="1082.652"
     y="490.65869">A</text><text
     fill="#ff0000"
     font-family="Calibri, Calibri_MSFontService, sans-serif"
     font-weight="700"
     font-size="110px"
     id="B-Label"
     x="1770.0885"
     y="483.61853">B</text><rect
     style="fill:#f9f9f9;fill-opacity:1;stroke:none;stroke-width:8.98815;stroke-dasharray:none;stroke-dashoffset:0;stroke-opacity:1"
     id="rect26"
     width="927.77777"
     height="427.77777"
     x="2633.3333"
     y="977.77777" /><text
     fill="#ff0000"
     font-family="Calibri, Calibri_MSFontService, sans-serif"
     font-weight="700"
     font-size="110px"
     id="X-Label"
     x="2614.0518"
     y="863.68188"
     style="font-style:normal;font-variant:normal;font-weight:bold;font-stretch:normal;font-size:110px;font-family:Calibri, Calibri_MSFontService, sans-serif;-inkscape-font-specification:'Calibri, Calibri_MSFontService, sans-serif, Bold';font-variant-ligatures:normal;font-variant-caps:normal;font-variant-numeric:normal;font-variant-east-asian:normal;fill:#ff0000"><tspan
       sodipodi:role="line"
       id="tspan4">X</tspan></text><text
     fill="#ff0000"
     font-family="Calibri, Calibri_MSFontService, sans-serif"
     font-weight="700"
     font-size="110px"
     id="O-Label"
     x="1716.75"
     y="2221">O</text><text
     font-family="Calibri, Calibri_MSFontService, sans-serif"
     font-weight="700"
     font-size="110px"
     id="text12"
     x="1320.3611"
     y="1306.8889">R</text><text
     font-family="Calibri, Calibri_MSFontService, sans-serif"
     font-weight="700"
     font-size="110px"
     id="text13"
     x="1716.75"
     y="1203">R</text><text
     font-family="Calibri, Calibri_MSFontService, sans-serif"
     font-weight="700"
     font-size="110px"
     id="text14"
     x="2337.5833"
     y="1373.2222">R</text><rect
     x="1898"
     y="633"
     width="165"
     height="97.644661"
     fill="#e2e2e2"
     id="rect23"
     style="stroke-width:0.856837" /><text
     font-family="Calibri, Calibri_MSFontService, sans-serif"
     font-weight="700"
     font-size="110px"
     id="text25-5"
     x="1461.2515"
     y="354.93625"
     style="font-style:normal;font-variant:normal;font-weight:bold;font-stretch:normal;font-size:110px;font-family:Calibri, Calibri_MSFontService, sans-serif;-inkscape-font-specification:'Calibri, Calibri_MSFontService, sans-serif, Bold';font-variant-ligatures:normal;font-variant-caps:normal;font-variant-numeric:normal;font-variant-east-asian:normal"><tspan
       sodipodi:role="line"
       id="tspan19"
       x="1461.2515"
       y="354.93625"
       style="font-size:74.6667px;text-align:center;text-anchor:middle">Distance to Horizon</tspan><tspan
       sodipodi:role="line"
       id="tspan20"
       x="1461.2515"
       y="492.43625"
       style="font-size:96px;text-align:center;text-anchor:middle">d1 = √(2Rh1)</tspan></text><text
     font-family="Calibri, Calibri_MSFontService, sans-serif"
     font-weight="700"
     font-size="110px"
     id="text25-5-6"
     x="3094.2795"
     y="1075.5105"
     style="font-style:normal;font-variant:normal;font-weight:bold;font-stretch:normal;font-size:110px;font-family:Calibri, Calibri_MSFontService, sans-serif;-inkscape-font-specification:'Calibri, Calibri_MSFontService, sans-serif, Bold';font-variant-ligatures:normal;font-variant-caps:normal;font-variant-numeric:normal;font-variant-east-asian:normal;fill:#800000;fill-opacity:1;stroke:none;stroke-opacity:1"><tspan
       sodipodi:role="line"
       x="3094.2795"
       y="1075.5105"
       style="font-size:85.3333px;text-align:center;text-anchor:middle;fill:#800000;fill-opacity:1;stroke:none;stroke-opacity:1"
       id="tspan23">Calculate Hidden Height</tspan><tspan
       sodipodi:role="line"
       x="3094.2795"
       y="1213.0105"
       style="font-size:96px;text-align:center;text-anchor:middle;fill:#800000;fill-opacity:1;stroke:none;stroke-opacity:1"
       id="tspan25">d2 = d0 - d1</tspan><tspan
       sodipodi:role="line"
       x="3094.2795"
       y="1350.5105"
       style="font-size:96px;text-align:center;text-anchor:middle;fill:#800000;fill-opacity:1;stroke:none;stroke-opacity:1"
       id="tspan26">h2 = √(R<tspan
   style="font-size:65%;baseline-shift:super;fill:#800000;fill-opacity:1;stroke:none;stroke-opacity:1"
   id="tspan21">2</tspan>+d2<tspan
   style="font-size:65%;baseline-shift:super;fill:#800000;fill-opacity:1;stroke:none;stroke-opacity:1"
   id="tspan22">2</tspan>) - R</tspan></text><text
     font-family="Calibri, Calibri_MSFontService, sans-serif"
     font-weight="700"
     font-size="110px"
     id="text25-5-3"
     x="2227.3906"
     y="358.51044"
     style="font-style:normal;font-variant:normal;font-weight:bold;font-stretch:normal;font-size:110px;font-family:Calibri, Calibri_MSFontService, sans-serif;-inkscape-font-specification:'Calibri, Calibri_MSFontService, sans-serif, Bold';font-variant-ligatures:normal;font-variant-caps:normal;font-variant-numeric:normal;font-variant-east-asian:normal"><tspan
       sodipodi:role="line"
       id="tspan19-1"
       x="2227.3906"
       y="358.51044"
       style="font-size:74.6667px;text-align:center;text-anchor:middle" /><tspan
       sodipodi:role="line"
       id="tspan20-9"
       x="2227.3906"
       y="496.01044"
       style="font-size:96px;text-align:center;text-anchor:middle">d2</tspan></text><text
     font-family="Calibri, Calibri_MSFontService, sans-serif"
     font-weight="700"
     font-size="110px"
     id="text25-5-7"
     x="1727.7908"
     y="224.9942"
     style="font-style:normal;font-variant:normal;font-weight:bold;font-stretch:normal;font-size:110px;font-family:Sans;-inkscape-font-specification:'Sans, Bold';font-variant-ligatures:normal;font-variant-caps:normal;font-variant-numeric:normal;font-variant-east-asian:normal"><tspan
       sodipodi:role="line"
       id="tspan18"
       x="1727.7908"
       y="224.9942"
       style="font-style:normal;font-variant:normal;font-weight:bold;font-stretch:normal;font-family:Calibri, Calibri_MSFontService, sans-serif;-inkscape-font-specification:'Calibri, Calibri_MSFontService, sans-serif Bold'">Distance (d0)</tspan></text><g
     transform="matrix(0.01375616,-0.00483154,-0.00442111,-0.00860894,1169.1656,644.81783)"
     fill="#000000"
     stroke="none"
     id="g2"
     inkscape:transform-center-x="-30.467836"
     inkscape:transform-center-y="-20.763647"><path
       d="m 2901,12789 c -438,-49 -792,-208 -1056,-473 -199,-200 -316,-406 -384,-676 -147,-583 61,-1183 532,-1534 263,-196 587,-300 977,-313 746,-26 1361,289 1659,847 60,114 124,299 147,430 26,143 24,374 -4,518 -126,637 -633,1082 -1354,1187 -130,19 -407,27 -517,14 z"
       id="path1-2" /><path
       d="M 1207,8243 -1,6986 247,6738 c 136,-136 250,-248 254,-248 3,0 433,455 955,1010 l 949,1010 7,-387 c 4,-214 11,-980 16,-1703 l 8,-1315 -729,-2255 C 1306,1610 936,465 885,305 833,146 793,13 796,10 806,0 1824,6 1855,16 c 35,12 -8,-145 356,1279 519,2030 848,3295 897,3450 12,37 22,54 25,45 4,-8 116,-409 251,-890 291,-1041 743,-2656 940,-3360 l 141,-505 514,-3 c 486,-2 513,-1 508,15 -2,10 -190,585 -417,1278 -226,693 -595,1823 -819,2510 l -407,1250 8,1265 c 4,696 11,1467 16,1713 l 7,448 973,-986 c 535,-542 976,-985 980,-985 4,0 135,107 290,237 l 284,236 -1244,1244 -1243,1243 h -750 -750 z"
       id="path2-4" /></g><text
     font-family="Calibri, Calibri_MSFontService, sans-serif"
     font-weight="700"
     font-size="110px"
     id="h2-Label"
     x="2914.0532"
     y="682.14532"
     style="font-style:normal;font-variant:normal;font-weight:bold;font-stretch:normal;font-size:69.3333px;font-family:Calibri, Calibri_MSFontService, sans-serif;-inkscape-font-specification:'Calibri, Calibri_MSFontService, sans-serif, Bold';font-variant-ligatures:normal;font-variant-caps:normal;font-variant-numeric:normal;font-variant-east-asian:normal"><tspan
       sodipodi:role="line"
       id="tspan14"
       x="2914.0532"
       y="682.14532">Hidden (h2)</tspan></text><text
     font-family="Calibri, Calibri_MSFontService, sans-serif"
     font-weight="700"
     font-size="110px"
     id="h2-Label-5"
     x="2936.2981"
     y="459.10629"
     style="font-style:normal;font-variant:normal;font-weight:bold;font-stretch:normal;font-size:69.3333px;font-family:Calibri, Calibri_MSFontService, sans-serif;-inkscape-font-specification:'Calibri, Calibri_MSFontService, sans-serif, Bold';font-variant-ligatures:normal;font-variant-caps:normal;font-variant-numeric:normal;font-variant-east-asian:normal"><tspan
       sodipodi:role="line"
       id="tspan15"
       style="font-style:normal;font-variant:normal;font-weight:bold;font-stretch:normal;font-size:74.66666667px;font-family:Calibri, Calibri_MSFontService, sans-serif;-inkscape-font-specification:'Calibri, Calibri_MSFontService, sans-serif Bold';font-variant-ligatures:normal;font-variant-caps:normal;font-variant-numeric:normal;font-variant-east-asian:normal"
       x="2936.2981"
       y="459.10629">Visible</tspan></text><text
     font-family="Calibri, Calibri_MSFontService, sans-serif"
     font-weight="700"
     font-size="110px"
     id="h2-Label-5-7"
     x="3258.3264"
     y="594.61798"
     style="font-style:normal;font-variant:normal;font-weight:bold;font-stretch:normal;font-size:69.3333px;font-family:Calibri, Calibri_MSFontService, sans-serif;-inkscape-font-specification:'Calibri, Calibri_MSFontService, sans-serif, Bold';font-variant-ligatures:normal;font-variant-caps:normal;font-variant-numeric:normal;font-variant-east-asian:normal"><tspan
       sodipodi:role="line"
       id="tspan15-7"
       x="3258.3264"
       y="594.61798" /></text><text
     font-family="Calibri, Calibri_MSFontService, sans-serif"
     font-weight="700"
     font-size="110px"
     id="h1-Label"
     x="387.22739"
     y="618.5899"
     style="font-style:normal;font-variant:normal;font-weight:bold;font-stretch:normal;font-size:85.3333px;font-family:Calibri, Calibri_MSFontService, sans-serif;-inkscape-font-specification:'Calibri, Calibri_MSFontService, sans-serif, Bold';font-variant-ligatures:normal;font-variant-caps:normal;font-variant-numeric:normal;font-variant-east-asian:normal"><tspan
       sodipodi:role="line"
       id="tspan7"
       x="387.22739"
       y="618.5899"
       style="font-size:85.3333px">Observer Height (h1)</tspan></text><text
     fill="#ff0000"
     font-family="Calibri, Calibri_MSFontService, sans-serif"
     font-weight="700"
     font-size="110px"
     id="text17"
     x="362.95657"
     y="1866.5504">Warning</text><text
     fill="#ff0000"
     font-family="Calibri, Calibri_MSFontService, sans-serif"
     font-weight="700"
     font-size="110px"
     id="text18"
     x="791.38605"
     y="1866.5504">:</text><text
     fill="#ff0000"
     font-family="Calibri, Calibri_MSFontService, sans-serif"
     font-weight="700"
     font-size="110px"
     id="text19"
     x="362.95657"
     y="1998.5504">Not </text><text
     fill="#ff0000"
     font-family="Calibri, Calibri_MSFontService, sans-serif"
     font-weight="700"
     font-size="110px"
     id="text20"
     x="557.1756"
     y="1998.5504">to</text><text
     fill="#ff0000"
     font-family="Calibri, Calibri_MSFontService, sans-serif"
     font-weight="700"
     font-size="110px"
     id="text21"
     x="678.13055"
     y="1998.5504">Scale</text><text
     fill="#ff0000"
     font-family="Calibri, Calibri_MSFontService, sans-serif"
     font-weight="700"
     font-size="110px"
     id="text22"
     x="958.37115"
     y="1997.0792">!</text><g
     id="g1"
     transform="matrix(-0.38980937,-0.24789143,-0.15007122,0.257882,3264.731,510.34584)"><path
       d="M 0,0 H 2047 V 2048 H 0 Z"
       fill="#FEFEFE"
       id="path1-1"
       style="fill:none" /><path
       transform="translate(905,238)"
       d="m 0,0 h 30 l 1,73 8,-10 15,-15 15,-10 14,-6 17,-4 h 23 l 16,3 22,8 17,9 18,12 14,11 15,11 20,12 21,10 33,11 22,5 27,4 27,2 h 37 l 30,-2 32,-4 34,-6 38,-9 34,-10 12,-4 2,1 -15,12 -16,12 -18,13 -26,17 -15,9 -18,10 -16,8 -19,9 -27,10 -21,6 -20,4 -15,2 -16,1 h -12 l -23,-2 -21,-4 -30,-10 -29,-14 -22,-13 -21,-13 -18,-10 -15,-5 -16,-2 h -16 l -17,2 -23,5 -30,10 -27,12 h -2 l 1,850 13,-229 34,-608 1,-11 4,2 24,24 7,8 7,7 7,8 9,10 9,11 12,14 11,14 14,18 10,14 12,17 20,30 12,19 19,32 15,27 15,29 16,32 16,36 11,25 15,38 11,30 14,40 14,45 14,50 16,64 12,56 10,54 9,56 9,69 6,60 4,52 3,61 1,43 v 37 l -1,15 H 63 l 6,11 17,25 13,18 11,14 3,5 H 30 v 24 l 59,1 74,2 19,13 17,12 8,6 22,1 299,8 h 5 l 5,-25 5,-13 5,-6 12,-5 15,-3 21,-2 h 55 v 18 l -41,3 h -13 l -3,24 -18,124 -2,7 h -45 l -1,-1 v -10 l -6,1 -88,5 -77,3 -92,2 H 160 l -53,-1 -61,-2 -59,-3 -71,-5 -64,-6 -58,-7 -48,-7 -47,-8 -5,-2 -26,-26 -8,-7 -27,-27 -8,-7 -26,-26 -8,-7 -4,-4 v -2 l 82,2 112,3 h 18 l 22,-14 15,-10 5,-3 h 36 l 123,3 -1,-22 -384,-1 v -4 l 158,-22 59,-7 20,-2 h 9 l -9,-54 -8,-64 -5,-58 -3,-57 -1,-42 v -52 l 1,-43 3,-63 5,-67 7,-70 9,-73 10,-70 8,-49 8,-40 10,-42 10,-38 15,-49 16,-47 15,-40 12,-30 19,-46 5,-12 1,3 -14,63 -10,50 -9,51 -10,67 -7,58 -6,65 -3,46 -2,49 v 97 l 2,46 4,53 6,52 7,46 9,47 12,50 12,41 12,36 7,19 1,-983 8,-29 v -2 L 1,177 H 0 Z"
       fill="#201a3e"
       id="path2-7" /><path
       transform="translate(914,402)"
       d="m 0,0 1,2 -8,28 -1,4 -1,984 -2,-1 -15,-42 -13,-43 -13,-52 -10,-50 -7,-44 -6,-50 -4,-47 -2,-35 -1,-27 v -97 l 2,-49 4,-58 6,-62 8,-63 10,-65 12,-65 11,-52 8,-36 -13,32 -15,36 -19,50 -14,40 -12,37 -14,49 -12,49 -9,44 -7,41 -10,68 -10,79 -7,68 -5,62 -3,53 -1,26 -1,43 v 52 l 1,42 3,57 5,58 8,64 8,48 v 6 l -72,8 -67,9 -100,14 h -8 l -3,-27 -2,-31 -1,-31 v -39 l 2,-53 4,-53 6,-54 7,-48 9,-51 11,-53 12,-50 15,-55 15,-49 12,-36 12,-35 17,-45 17,-42 15,-35 17,-38 17,-36 32,-64 12,-22 14,-26 14,-24 10,-18 17,-28 10,-17 15,-24 14,-22 38,-57 16,-23 11,-16 h 2 l 2,-5 z"
       fill="#feecc0"
       id="path3-1" /><path
       transform="translate(984,401)"
       d="m 0,0 4,2 24,24 7,8 7,7 7,8 9,10 9,11 12,14 11,14 14,18 10,14 12,17 20,30 12,19 19,32 15,27 15,29 16,32 16,36 11,25 15,38 11,30 14,40 14,45 14,50 16,64 12,56 10,54 9,56 7,53 -1,2 -17,-10 -23,-12 -24,-11 -26,-10 -31,-10 -32,-8 -33,-6 -36,-4 -16,-1 H 85 l -35,3 -33,5 -31,7 -30,9 -2,2 4,-76 33,-589 8,-143 z"
       fill="#3e60aa"
       id="path4-1" /><path
       transform="translate(905,1621)"
       d="m 0,0 h 29 l 1,1 v 23 l 59,1 74,2 19,13 17,12 8,6 22,1 299,8 h 5 l 5,-25 5,-13 5,-6 12,-5 15,-3 21,-2 h 55 v 18 l -41,3 h -13 l -3,24 -18,124 -2,7 h -45 l -1,-1 v -10 l -6,1 -88,5 -77,3 -92,2 H 160 l -53,-1 -61,-2 -59,-3 -71,-5 -64,-6 -58,-7 -48,-7 -47,-8 -5,-2 -26,-26 -8,-7 -27,-27 -8,-7 -26,-26 -8,-7 -4,-4 v -2 l 82,2 112,3 h 18 l 22,-14 15,-10 5,-3 h 36 L 0,23 Z"
       fill="#201a3e"
       id="path5-5" /><path
       transform="translate(893,480)"
       d="m 0,0 1,3 -14,63 -10,50 -9,51 -10,67 -7,58 -6,65 -3,46 -2,49 v 97 l 2,46 4,53 6,52 7,46 9,47 12,50 12,41 12,36 7,19 4,10 10,24 11,24 11,23 12,22 14,24 v 2 h 2 l 6,11 17,25 13,18 11,14 3,5 -84,1 -414,-1 v -4 l 158,-22 59,-7 20,-2 h 9 l -9,-54 -8,-64 -5,-58 -3,-57 -1,-42 v -52 l 1,-43 3,-63 5,-67 7,-70 9,-73 10,-70 8,-49 8,-40 10,-42 10,-38 15,-49 16,-47 15,-40 12,-30 19,-46 z"
       fill="#3e60aa"
       id="path6-2" /><path
       transform="translate(984,401)"
       d="m 0,0 4,2 24,24 7,8 7,7 7,8 9,10 9,11 12,14 11,14 14,18 10,14 12,17 20,30 12,19 19,32 15,27 15,29 16,32 16,36 11,25 15,38 11,30 14,40 11,35 v 2 l -9,-3 -28,-10 -29,-9 -39,-9 -38,-6 -29,-3 -14,-1 -28,-1 H 64 l -43,2 -39,4 h -9 V 475 L -1,11 Z"
       fill="#201a3e"
       id="path7" /><path
       transform="translate(904,437)"
       d="m 0,0 h 1 v 983 l -2,-1 -15,-42 -13,-43 -13,-52 -10,-50 -7,-44 -6,-50 -4,-47 -2,-35 -1,-27 v -97 l 2,-49 4,-58 6,-62 8,-63 10,-65 12,-65 11,-52 8,-35 1,-7 3,-8 6,-24 z"
       fill="#fefefe"
       id="path8" /><path
       transform="translate(492,1663)"
       d="m 0,0 82,2 259,7 30,1 43,13 113,38 38,11 -3,2 -43,9 -55,13 -57,15 -63,18 -20,6 -18,-1 -59,-6 -62,-8 -56,-9 -21,-4 L 81,80 73,73 46,46 38,39 12,13 4,6 0,2 Z"
       fill="#e5241f"
       id="path9" /><path
       transform="translate(1501,1634)"
       d="M 0,0 H 55 V 18 L 14,21 H 1 l -3,24 -18,124 -2,7 h -45 l -1,-1 v -42 l 2,-46 3,-33 5,-25 5,-13 5,-6 12,-5 15,-3 z"
       fill="#3e60aa"
       id="path10" /><path
       transform="translate(987,314)"
       d="m 0,0 h 15 l 10,3 6,3 v 2 l -18,11 -17,13 -14,11 -13,12 -8,7 -7,7 -5,6 h -1 V 18 l 16,-8 24,-8 z"
       fill="#ffffff"
       id="path11" /><path
       transform="translate(1509,1634)"
       d="M 0,0 H 47 V 18 L 6,21 H 0 L -1,18 V 1 Z"
       fill="#201b40"
       id="path12" /></g><text
     fill="#ff0000"
     font-family="Calibri, Calibri_MSFontService, sans-serif"
     font-weight="700"
     font-size="110px"
     id="C-Label"
     x="2807.5166"
     y="553.06934"
     style="font-style:normal;font-variant:normal;font-weight:bold;font-stretch:normal;font-size:110px;font-family:Calibri, Calibri_MSFontService, sans-serif;-inkscape-font-specification:'Calibri, Calibri_MSFontService, sans-serif, Bold';font-variant-ligatures:normal;font-variant-caps:normal;font-variant-numeric:normal;font-variant-east-asian:normal;fill:#ff0000"><tspan
       sodipodi:role="line"
       id="tspan2"
       x="2807.5166"
       y="553.06934">C</tspan></text><path
     d="m 3432.4425,357.68648 -493.7642,4e-4"
     stroke="#000000"
     stroke-width="3.1768"
     stroke-miterlimit="8"
     fill="none"
     fill-rule="evenodd"
     id="path5-2"
     style="stroke-dasharray:32,8;stroke-dashoffset:0;stroke:#060000;stroke-opacity:1;stroke-width:8;fill:#000000;fill-opacity:1" /><path
     d="m 1648.2199,196.57865 -480.2248,3.9e-4"
     stroke="#000000"
     stroke-width="3.1768"
     stroke-miterlimit="8"
     fill="none"
     fill-rule="evenodd"
     id="path5-2-7"
     style="fill:#000000;fill-opacity:1;stroke:#060000;stroke-width:7.88042;stroke-dasharray:none;stroke-dashoffset:0;stroke-opacity:1;marker-end:url(#Triangle)"
     inkscape:label="d0-DistanceLineL" /><path
     d="m 2740.573,192.68999 -363.5465,4.1e-4"
     stroke="#000000"
     stroke-width="3.1768"
     stroke-miterlimit="8"
     fill="none"
     fill-rule="evenodd"
     id="path5-2-7-9"
     style="fill:#000000;fill-opacity:1;stroke:#060000;stroke-width:9.23202;stroke-dasharray:none;stroke-dashoffset:0;stroke-opacity:1;marker-start:url(#marker13)"
     inkscape:label="d0-DistanceLineR" /><path
     d="m 3421.9409,379.40393 -1.3706,123.08672"
     stroke="#000000"
     stroke-width="3.1768"
     stroke-miterlimit="8"
     fill="none"
     fill-rule="evenodd"
     id="path5-2-7-9-1"
     style="fill:#000000;fill-opacity:1;stroke:#060000;stroke-width:5.49815;stroke-dasharray:none;stroke-dashoffset:0;stroke-opacity:1;marker-start:url(#marker13-3)"
     inkscape:label="d0-DistanceLineR"
     inkscape:transform-center-x="-32.05371"
     inkscape:transform-center-y="-184.08895" /><path
     d="m 3423.0261,756.89187 -0.8905,-92.52924"
     stroke="#000000"
     stroke-width="3.1768"
     stroke-miterlimit="8"
     fill="none"
     fill-rule="evenodd"
     id="path5-2-7-9-1-4"
     style="fill:#000000;fill-opacity:1;stroke:#060000;stroke-width:5.12376;stroke-dasharray:none;stroke-dashoffset:0;stroke-opacity:1;marker-start:url(#marker13-3-3)"
     inkscape:label="d0-DistanceLineR"
     inkscape:transform-center-x="12.257744"
     inkscape:transform-center-y="-46.92886" /><path
     d="m 3153.9979,525.91995 -210.9199,4e-4"
     stroke="#000000"
     stroke-width="3.1768"
     stroke-miterlimit="8"
     fill="none"
     fill-rule="evenodd"
     id="Visible-Bottom"
     style="fill:#000000;fill-opacity:1;stroke:#060000;stroke-width:8;stroke-dasharray:31.99994164,8;stroke-dashoffset:0;stroke-opacity:1" /><path
     d="m 3432.5564,768.38023 -572.3346,-1.9e-4"
     stroke="#000000"
     stroke-width="3.1768"
     stroke-miterlimit="8"
     fill="none"
     fill-rule="evenodd"
     id="Hidden-Bottom"
     style="fill:#000000;fill-opacity:1;stroke:#060000;stroke-width:8;stroke-dasharray:32,8;stroke-dashoffset:0;stroke-opacity:1" /><text
     xml:space="preserve"
     style="font-style:normal;font-variant:normal;font-weight:bold;font-stretch:normal;font-size:69.3333px;font-family:Calibri, Calibri_MSFontService, sans-serif;-inkscape-font-specification:'Calibri, Calibri_MSFontService, sans-serif, Bold';font-variant-ligatures:normal;font-variant-caps:normal;font-variant-numeric:normal;font-variant-east-asian:normal;text-align:start;writing-mode:lr-tb;direction:ltr;text-anchor:start;fill:#000000;fill-opacity:1;stroke:#060000;stroke-width:4;stroke-dasharray:none;stroke-dashoffset:0;stroke-opacity:1"
     x="3422.7468"
     y="553.90033"
     id="text16"><tspan
       sodipodi:role="line"
       id="tspan16"
       x="3422.7468"
       y="553.90033"
       style="text-align:center;text-anchor:middle">Ship</tspan><tspan
       sodipodi:role="line"
       x="3422.7468"
       y="640.56696"
       id="tspan17"
       style="text-align:center;text-anchor:middle">Height</tspan></text></svg>
